<?xml version="1.0" encoding="UTF-8"?>
<!DOCTYPE svg PUBLIC "-//W3C//DTD SVG 1.0//EN" "http://www.w3.org/TR/2001/REC-SVG-20010904/DTD/svg10.dtd">
<!-- Creator: CorelDRAW -->
<svg xmlns="http://www.w3.org/2000/svg" xml:space="preserve" width="39.1797mm" height="10.1058mm" version="1.0" style="shape-rendering:geometricPrecision; text-rendering:geometricPrecision; image-rendering:optimizeQuality; fill-rule:evenodd; clip-rule:evenodd"
viewBox="0 0 4518.25 1165.41"
 xmlns:xlink="http://www.w3.org/1999/xlink"
 xmlns:xodm="http://www.corel.com/coreldraw/odm/2003">
 <defs>
  <style type="text/css">
   <![CDATA[
    .str0 {stroke:black;stroke-width:19.52;stroke-miterlimit:22.9256}
    .fil5 {fill:none}
    .fil2 {fill:black}
    .fil4 {fill:#1A1A1A}
    .fil1 {fill:black;fill-rule:nonzero}
    .fil0 {fill:url(#id1)}
    .fil3 {fill:url(#id2)}
   ]]>
  </style>
   <clipPath id="id0">
    <path d="M2722.88 909.14c-39.15,-107.87 -78.3,-215.74 -117.44,-323.63 -13.05,-60.02 62.63,-83.52 86.12,-36.53l54.5 142.17 -0.21 0.16 41.57 115.53 20.38 -11.77 -45.37 -104.28c17.93,-20.93 49.76,-42.44 83.67,5.24l36.21 100.61 20.37 -11.77 -43.4 -100.17c15.61,-24.94 46.43,-45.62 77.65,-3.54l41.55 115.48 20.38 -11.77 -33.77 -86.5c33.09,-43.75 64.8,-24.56 81.41,-3.21 25.23,68.72 50.46,137.45 75.69,206.17 33.93,247.94 -206.17,266.21 -279.25,227.07 -78.93,-55.71 -158.92,-117.79 -234.9,-177.48 -52.19,-36.53 10.45,-101.78 33.94,-83.52 26.97,13.92 53.94,27.84 80.91,41.76z"/>
   </clipPath>
  <linearGradient id="id1" gradientUnits="userSpaceOnUse" x1="-0" y1="373.76" x2="4518.25" y2="373.76">
   <stop offset="0" style="stop-opacity:1; stop-color:#F9F295"/>
   <stop offset="0.341176" style="stop-opacity:1; stop-color:#E0AA3E"/>
   <stop offset="0.701961" style="stop-opacity:1; stop-color:#F9F295"/>
   <stop offset="1" style="stop-opacity:1; stop-color:#B88A44"/>
  </linearGradient>
  <linearGradient id="id2" gradientUnits="userSpaceOnUse" xlink:href="#id1" x1="2566.65" y1="834.2" x2="3146.44" y2="834.2">
  </linearGradient>
 </defs>
 <g id="Camada_x0020_1">
  <metadata id="CorelCorpID_0Corel-Layer"/>
  <rect class="fil0" x="-0.01" y="-0.01" width="4518.26" height="747.51" rx="191.07" ry="139.17"/>
  <path class="fil1" d="M1023.86 495.9c47.4,0 68.3,-27.39 73.33,-47.7l0.3 -1.46 -40.06 0 -0.45 0.86c-2.96,6.18 -13.42,16.23 -32.27,16.23 -22.82,0 -37.1,-15.48 -37.55,-42.12l111.63 0 0 -13.42c0,-49 -29.45,-81.43 -76.7,-81.43 -47.29,0 -77.45,33.13 -77.45,84.69l0 0.16c0,51.96 29.86,84.18 79.21,84.18zm-1.06 -136.76c18.71,0 32.12,12.06 34.78,35.63l-69.97 0c2.66,-22.97 16.49,-35.63 35.18,-35.63z"/>
  <polygon id="_1" class="fil1" points="1115.43,492.54 1160.82,492.54 1190.98,438.96 1193.64,438.96 1224.01,492.54 1271.56,492.54 1220.13,410.51 1271.26,330.38 1224.4,330.38 1195.71,384.17 1193.04,384.17 1164.34,330.38 1115.03,330.38 1166.26,412.26 "/>
  <path id="_2" class="fil1" d="M1344.29 495.05c21.21,0 38.24,-9 46.49,-24.02l2.66 0 0 21.51 42.43 0 0 -110.73c0,-34.63 -24.28,-54.94 -67.3,-54.94 -40.77,0 -67.6,18.86 -70.97,47.3l-0.16 1.3 39.76 0 0.3 -0.6c3.37,-9.55 13.27,-15.03 28.7,-15.03 17.69,0 27.24,7.99 27.24,21.96l0 13.38 -39.15 2.35c-40.36,2.36 -62.88,19.45 -62.88,48.61l0 0.3c0,29.45 21.92,48.61 52.89,48.61zm-10.91 -51.27l0 -0.3c0,-11.76 9,-18.69 27.39,-19.86l32.67 -2.05 0 11.91c0,17.09 -14.88,30.2 -34.73,30.2 -14.88,0 -25.32,-7.54 -25.32,-19.9z"/>
  <path id="_3" class="fil1" d="M1542.47 495.9c41.53,0 71.13,-20.91 71.13,-52.98l0 -0.15c0,-24.02 -15.19,-37.55 -47.55,-44.48l-26.95 -5.73c-16.78,-3.72 -22.87,-8.7 -22.87,-17.39l0 -0.15c0,-10.91 10.61,-17.79 25.49,-17.79 16.09,0 25.64,8.1 28,16.79l0.15 0.7 39.9 0 0 -0.55c-1.75,-26.09 -25.32,-47.3 -67.9,-47.3 -40.47,0 -67.6,20.31 -67.6,50.82l0 0.15c0,24.28 15.33,39.45 46.24,46.09l27.09 5.73c16.54,3.67 23.02,9.14 23.02,17.84l0 0.25c0,10.75 -11.21,17.84 -27.69,17.84 -16.94,0 -26.79,-7.24 -30.21,-17.24l-0.3 -0.6 -42.27 0 0.15 0.6c3.11,27.84 28.14,47.55 72.17,47.55z"/>
  <path id="_4" class="fil1" d="M1720.2 495.9c42.22,0 67.56,-22.67 71.97,-58.01l0.15 -0.85 -39.75 0 -0.3 0.55c-3.83,16.19 -14.28,24.57 -31.92,24.57 -22.97,0 -35.78,-18.09 -35.78,-50.91l0 -0.3c0,-32.42 12.66,-50.36 35.78,-50.36 18.39,0 29.15,10.3 31.92,26.09l0.15 0.25 40.05 0 0 -0.4c-3.82,-36.25 -29.3,-59.67 -72.27,-59.67 -50.82,0 -79.36,30.77 -79.36,84.09l0 0.3c0,53.89 28.69,84.65 79.36,84.65z"/>
  <path id="_5" class="fil1" d="M1897.88 495.9c49.96,0 79.96,-31.52 79.96,-84.35l0 -0.3c0,-52.43 -30.46,-84.39 -79.96,-84.39 -49.46,0 -79.92,32.12 -79.92,84.39l0 0.3c0,52.68 30.01,84.35 79.92,84.35zm0 -33.73c-22.97,0 -35.89,-18.69 -35.89,-50.61l0 -0.3c0,-31.67 13.07,-50.66 35.89,-50.66 22.72,0 35.93,18.99 35.93,50.66l0 0.3c0,31.92 -13.11,50.61 -35.93,50.61z"/>
  <path id="_6" class="fil1" d="M2012.77 492.54l42.98 0 0 -97.76c0,-18.56 11.81,-32.27 28.6,-32.27 16.79,0 26.64,10.15 26.64,27.54l0 102.49 42.97 0 0 -99.67c0,-17.54 11.21,-30.35 28.6,-30.35 17.94,0 26.8,9.85 26.8,29.45l0 100.57 42.97 0 0 -111.33c0,-33.42 -20.16,-54.34 -52.43,-54.34 -22.67,0 -41.52,11.91 -48.85,29.91l-2.66 0c-6.64,-18.71 -22.97,-29.91 -45.09,-29.91 -21.16,0 -37.95,10.61 -44.88,28.85l-2.66 0 0 -25.34 -42.98 0 0 162.15z"/>
  <path id="_7" class="fil1" d="M2293.89 546.27l42.98 0 0 -79.66 2.66 0c8.25,17.69 26.34,28.45 48.61,28.45 41.07,0 65.79,-31.37 65.79,-83.49l0 -0.3c0,-51.72 -25.34,-83.48 -65.79,-83.48 -22.97,0 -40.21,10.3 -48.61,27.64l-2.66 0 0 -25.04 -42.98 0 0 215.88zm79.53 -86.85c-22.52,0 -37,-18.15 -37,-47.86l0 -0.3c0,-29.75 14.32,-47.85 37,-47.85 22.81,0 36.79,18.09 36.79,47.85l0 0.3c0,29.71 -14.13,47.86 -36.79,47.86z"/>
  <path id="_8" class="fil1" d="M2533.2 495.05c21.21,0 38.24,-9 46.49,-24.02l2.66 0 0 21.51 42.43 0 0 -110.73c0,-34.63 -24.28,-54.94 -67.3,-54.94 -40.77,0 -67.6,18.86 -70.97,47.3l-0.16 1.3 39.76 0 0.3 -0.6c3.37,-9.55 13.27,-15.03 28.7,-15.03 17.69,0 27.24,7.99 27.24,21.96l0 13.38 -39.15 2.35c-40.36,2.36 -62.88,19.45 -62.88,48.61l0 0.3c0,29.45 21.92,48.61 52.89,48.61zm-10.91 -51.27l0 -0.3c0,-11.76 9,-18.69 27.39,-19.86l32.67 -2.05 0 11.91c0,17.09 -14.88,30.2 -34.73,30.2 -14.88,0 -25.32,-7.54 -25.32,-19.9z"/>
  <path id="_9" class="fil1" d="M2666.9 492.54l42.98 0 0 -93.79c0,-21.97 12.06,-36.23 31.97,-36.23 20.31,0 29.75,12.06 29.75,34.87l0 95.15 42.98 0 0 -104.85c0,-38.7 -19.45,-60.82 -55.49,-60.82 -23.12,0 -39.21,11.06 -46.54,28.55l-2.66 0 0 -25.04 -42.98 0 0 162.15z"/>
  <path id="_10" class="fil1" d="M2871.01 549.69c40,0 61.37,-14.43 75.8,-57.3l55.24 -162 -45.34 0 -34.02 122.85 -2.98 0 -34.02 -122.85 -47.25 0 56.99 162.15 -1.45 6.18c-3.11,12.66 -11.96,18.54 -27.24,18.54 -4.02,0 -8.25,-0.15 -11.21,-0.45l0 32.42c5.03,0.31 10.45,0.46 15.48,0.46z"/>
  <path id="_11" class="fil1" d="M3042.12 496.2c15.18,0 25.94,-11 25.94,-25.64 0,-14.58 -10.76,-25.43 -25.94,-25.43 -15.03,0 -25.94,10.85 -25.94,25.43 0,14.63 10.91,25.64 25.94,25.64z"/>
  <path id="_12" class="fil1" d="M3181.6 495.9c42.22,0 67.56,-22.67 71.97,-58.01l0.15 -0.85 -39.75 0 -0.3 0.55c-3.83,16.19 -14.28,24.57 -31.92,24.57 -22.97,0 -35.78,-18.09 -35.78,-50.91l0 -0.3c0,-32.42 12.66,-50.36 35.78,-50.36 18.39,0 29.15,10.3 31.92,26.09l0.15 0.25 40.05 0 0 -0.4c-3.82,-36.25 -29.3,-59.67 -72.27,-59.67 -50.82,0 -79.36,30.77 -79.36,84.09l0 0.3c0,53.89 28.69,84.65 79.36,84.65z"/>
  <path id="_13" class="fil1" d="M3359.27 495.9c49.96,0 79.96,-31.52 79.96,-84.35l0 -0.3c0,-52.43 -30.46,-84.39 -79.96,-84.39 -49.46,0 -79.92,32.12 -79.92,84.39l0 0.3c0,52.68 30.01,84.35 79.92,84.35zm0 -33.73c-22.97,0 -35.89,-18.69 -35.89,-50.61l0 -0.3c0,-31.67 13.07,-50.66 35.89,-50.66 22.72,0 35.93,18.99 35.93,50.66l0 0.3c0,31.92 -13.11,50.61 -35.93,50.61z"/>
  <path id="_14" class="fil1" d="M3474.17 492.54l42.98 0 0 -97.76c0,-18.56 11.81,-32.27 28.6,-32.27 16.79,0 26.64,10.15 26.64,27.54l0 102.49 42.97 0 0 -99.67c0,-17.54 11.21,-30.35 28.6,-30.35 17.94,0 26.8,9.85 26.8,29.45l0 100.57 42.97 0 0 -111.33c0,-33.42 -20.16,-54.34 -52.43,-54.34 -22.67,0 -41.52,11.91 -48.85,29.91l-2.66 0c-6.64,-18.71 -22.97,-29.91 -45.09,-29.91 -21.16,0 -37.95,10.61 -44.88,28.85l-2.66 0 0 -25.34 -42.98 0 0 162.15z"/>
  <path id="_15" class="fil1" d="M3786.2 496.2c15.18,0 25.94,-11 25.94,-25.64 0,-14.58 -10.76,-25.43 -25.94,-25.43 -15.03,0 -25.94,10.85 -25.94,25.43 0,14.63 10.91,25.64 25.94,25.64z"/>
  <path id="_16" class="fil1" d="M3955.84 495.05c40.51,0 65.85,-31.67 65.85,-83.49l0 -0.3c0,-52.11 -24.78,-83.48 -65.85,-83.48 -22.21,0 -40.36,10.85 -48.61,28.54l-2.61 0 0 -87.91 -43.03 0 0 224.13 43.03 0 0 -25.19 2.61 0c8.4,17.55 25.64,27.7 48.61,27.7zm-14.73 -35.63c-22.67,0 -36.95,-18 -36.95,-47.7l0 -0.31c0,-29.75 14.43,-48 36.95,-48 22.67,0 36.79,18.24 36.79,47.85l0 0.3c0,29.86 -13.97,47.86 -36.79,47.86z"/>
  <path id="_17" class="fil1" d="M4056.56 492.54l42.98 0 0 -90.72c0,-22.97 15.48,-36.95 39.91,-36.95 6.63,0 13.26,1.01 19.74,2.51l0 -37.54c-4.27,-1.21 -10.3,-2.06 -16.08,-2.06 -21.06,0 -35.78,10.3 -40.92,27.79l-2.66 0 0 -25.19 -42.98 0 0 162.15z"/>
  <path class="fil2" d="M647.28 438.89c9.43,-10.96 35.06,-20.33 57.33,-3.84l101.28 100.83c-6.97,9.08 -32.99,23.04 -56.62,4.89l-101.98 -101.87zm-388.32 -69.32c-1.52,14.22 9.21,43.5 37.11,46.13l17.54 0.01 0 0.13 66.49 -0.06 49.42 0.06 0.01 -0.09 57.26 -0.05c1.52,-14.22 -9.2,-43.5 -37.1,-46.13l-17.55 -0.01 0.01 -0.13 -66.49 0.06 -49.43 -0.06 0 0.09 -57.27 0.05zm0 133.75c-1.52,14.22 9.21,43.49 37.11,46.12 62.86,0.07 125.72,0.14 188.58,0.21l20.23 0 315.78 -315.78 -64.68 0 -126.68 126.68 -125.18 -123.98c-81.72,0.07 -163.43,0.14 -245.16,0.21 -1.52,14.22 9.21,43.5 37.11,46.13 62.86,0.06 125.72,0.13 188.58,0.2l110.45 109.87 -110.18 110.17 -225.97 0.2z"/>
  <path class="fil3" d="M2684.69 865.71c-33.02,-91 -66.04,-182 -99.07,-273l-0.47 -1.33 -0.31 -1.38c-18.23,-83.86 90.99,-119.63 125.58,-50.44l0.45 0.92 0.38 0.96c15.75,41.09 31.49,82.18 47.25,123.27 27.35,-23.64 59.84,-25.77 88.59,0.58 9.81,-12.71 22.7,-23.05 37.32,-27.26 31.83,-9.17 56.35,11.41 73.36,36.49 13.37,-13.92 30.05,-24.03 50.35,-23.61 22.46,0.46 41.68,14.12 55.03,31.29l2.02 2.61 1.13 3.08c25.23,68.73 50.45,137.45 75.69,206.17l0.78 2.14 0.31 2.26c13.87,101.4 -13.63,196.93 -111.38,243.11 -54.87,25.91 -143.48,34.98 -198.72,5.4l-1.13 -0.61 -1.07 -0.75c-80.29,-56.68 -158.06,-117.07 -235.32,-177.78 -73.06,-51.87 10.37,-150.86 57.6,-118.45 10.55,5.45 21.09,10.9 31.64,16.34z"/>
  <path class="fil4" d="M2722.88 909.14c-39.15,-107.87 -78.3,-215.74 -117.44,-323.63 -13.05,-60.02 62.63,-83.52 86.12,-36.53l54.5 142.17 -0.21 0.16 41.57 115.53 20.38 -11.77 -45.37 -104.28c17.93,-20.93 49.76,-42.44 83.67,5.24l36.21 100.61 20.37 -11.77 -43.4 -100.17c15.61,-24.94 46.43,-45.62 77.65,-3.54l41.55 115.48 20.38 -11.77 -33.77 -86.5c33.09,-43.75 64.8,-24.56 81.41,-3.21 25.23,68.72 50.46,137.45 75.69,206.17 33.93,247.94 -206.17,266.21 -279.25,227.07 -78.93,-55.71 -158.92,-117.79 -234.9,-177.48 -52.19,-36.53 10.45,-101.78 33.94,-83.52 26.97,13.92 53.94,27.84 80.91,41.76z"/>
  <g style="clip-path:url(#id0)">
   <g id="_1449177726032">
    <rect class="fil5 str0" x="2229.31" y="579.28" width="57.98" height="42.17"/>
   </g>
  </g>
  <path class="fil5" d="M2722.88 909.14c-39.15,-107.87 -78.3,-215.74 -117.44,-323.63 -13.05,-60.02 62.63,-83.52 86.12,-36.53l54.5 142.17 -0.21 0.16 41.57 115.53 20.38 -11.77 -45.37 -104.28c17.93,-20.93 49.76,-42.44 83.67,5.24l36.21 100.61 20.37 -11.77 -43.4 -100.17c15.61,-24.94 46.43,-45.62 77.65,-3.54l41.55 115.48 20.38 -11.77 -33.77 -86.5c33.09,-43.75 64.8,-24.56 81.41,-3.21 25.23,68.72 50.46,137.45 75.69,206.17 33.93,247.94 -206.17,266.21 -279.25,227.07 -78.93,-55.71 -158.92,-117.79 -234.9,-177.48 -52.19,-36.53 10.45,-101.78 33.94,-83.52 26.97,13.92 53.94,27.84 80.91,41.76z"/>
 </g>
</svg>
