<?xml version="1.0" encoding="UTF-8"?>
<!DOCTYPE svg PUBLIC "-//W3C//DTD SVG 1.0//EN" "http://www.w3.org/TR/2001/REC-SVG-20010904/DTD/svg10.dtd">
<!-- Creator: CorelDRAW -->
<svg xmlns="http://www.w3.org/2000/svg" xml:space="preserve" width="77.2323mm" height="68.9592mm" version="1.0" style="shape-rendering:geometricPrecision; text-rendering:geometricPrecision; image-rendering:optimizeQuality; fill-rule:evenodd; clip-rule:evenodd"
viewBox="0 0 7816 6978.75"
 xmlns:xlink="http://www.w3.org/1999/xlink"
 xmlns:xodm="http://www.corel.com/coreldraw/odm/2003">
 <defs>
  <style type="text/css">
   <![CDATA[
    .fil4 {fill:none}
    .fil2 {fill:#272120}
    .fil0 {fill:#2C2527}
    .fil6 {fill:#D20204}
    .fil7 {fill:white}
    .fil3 {fill:white}
    .fil1 {fill:white}
    .fil5 {fill:url(#id2)}
   ]]>
  </style>
   <clipPath id="id0">
    <path d="M3826.49 696.24c-210.95,-206.94 -384.99,-438.84 -549.5,-677.61 -24.64,-35.76 -42.31,-17.46 -37.66,33 36.28,387.95 180.27,713.69 424.87,990.56 139.86,159.54 -36.82,192.44 -188.1,186.1 -191.39,-8.05 -214.56,-87.17 -285.86,-161.13 -192.97,-200.05 -308.29,-359.39 -721.1,-349.75 -24.33,0.53 -48.13,-2.44 -67.6,4.44 -354.83,125.47 6.24,823.39 185.78,780.34l10.26 75.75 118.5 39.36c17.77,-5.51 32.59,-19.16 55.44,-31.21 -8.57,22.95 -9.31,37.77 -17.88,60.72 28.67,-18.51 49.3,-28.88 77.97,-47.39 -4.76,22.64 -9.51,45.18 -14.28,67.81 46.87,3.17 95.85,16.82 139.55,3.7 174.88,-52.37 264.9,-52.69 340.76,-0.64 172.86,118.6 147.9,256.97 43.16,398.42 -291.26,431.43 -491.95,948.98 -683.33,1475.41 -108.86,23.8 -217.72,47.62 -326.59,71.42 -85.59,-192.55 -85.59,-225.13 -58.29,-306.17 64.75,-191.81 95.32,-306.7 -22.95,-492.15 -325.65,-479.46 -643.66,-945.81 -969.29,-1425.27 -15.02,-26.03 -64.01,4.33 -46.44,34.8 269.98,465.07 532.25,916.92 802.24,1381.99 -35.87,19.9 -71.73,39.68 -107.6,59.57 -269.77,-465.28 -531.3,-916.18 -801.08,-1381.47 -15.23,-26.34 -71.94,7.08 -57.13,32.8 265.44,466.66 522.62,918.93 788.06,1385.59 -31.85,20 -63.58,39.99 -95.42,59.99 -268.83,-467.93 -541.88,-912.69 -810.71,-1380.63 -16.28,-28.13 -72.36,13.34 -54.8,43.8 269.88,466.03 530.88,916.4 800.76,1382.42 -33.54,18.83 -67.08,37.67 -100.61,56.5 -274.11,-469.1 -539.44,-923.27 -813.56,-1392.37 -6.98,-12.16 -45.81,-2.54 -39.04,22.54 246.51,516.59 485.49,1020.18 731.05,1535.08 66.86,140.27 161.97,226.18 296.75,263.1 224.18,61.26 168.53,5.72 325.42,179.85 13.75,15.77 27.61,31.42 41.36,47.19 1311.01,42.52 2622.12,84.95 3933.13,127.47 3.28,-15.66 6.56,-31.41 9.84,-47.08 82.42,-175.93 1294.5,-2914.96 891.32,-2644.34 -482.43,823.09 -964.74,1646.27 -1447.17,2469.36 -250.51,-50.26 -501.04,-100.61 -751.56,-150.87 149.7,-135.09 299.39,-270.2 449.1,-405.29 164.61,-26.34 329.34,-52.58 493.95,-78.93 60.52,-115.32 120.93,-230.63 181.43,-345.95 -0.21,-43.16 -0.41,-86.22 -0.63,-129.39 44.21,-139.76 -39.57,-178.9 -48.03,-328.91 -12.59,-223.87 11.31,-210.85 -142.4,-349.97 113.62,-56.7 227.25,-113.3 340.87,-170.01 -212.64,-11.54 -425.19,-22.96 -637.83,-34.49 -21.7,-55.86 -43.49,-111.61 -65.17,-167.48 -118.39,-70.03 -236.66,-140.17 -355.04,-210.22 -353.78,-489.51 -588.43,-459.56 -1108.52,-540.18 -15.98,-2.33 -44.86,-8.89 -56.39,-20.21z"/>
   </clipPath>
   <clipPath id="id1">
    <path d="M2587.21 6843.97c817.69,-408.27 1689.76,-420.53 2619.16,-11.32 116.58,-203.86 253.28,-419.27 369.86,-623.13 -1072.55,-519.67 -2236.51,-514.9 -3341.85,-2.75 113.84,205.98 239,431.22 352.83,637.2zm-1264.67 -366.79c-316.44,-310.08 -650.42,-624.93 -966.86,-935.01 2194.61,-1729.75 4945.27,-1687.43 7100.31,-7.2 -310.19,310.08 -639.22,646.61 -949.41,956.7 -1519.95,-1125.23 -3464.35,-1198.55 -5184.04,-14.49zm-146.94 -1762.64c1736.83,-864.14 3650.44,-870.37 5475.5,0 69.09,-167.48 138.17,-334.84 207.26,-502.31 -1664.48,-920.94 -4231.48,-982.73 -5899.96,0 72.36,167.47 144.83,334.83 217.2,502.31z"/>
   </clipPath>
  <linearGradient id="id2" gradientUnits="userSpaceOnUse" x1="355.68" y1="5171.04" x2="7455.98" y2="5171.04">
   <stop offset="0" style="stop-opacity:1; stop-color:#911D1C"/>
   <stop offset="0.509804" style="stop-opacity:1; stop-color:#F5252F"/>
   <stop offset="1" style="stop-opacity:1; stop-color:#911D1C"/>
  </linearGradient>
 </defs>
 <g id="Camada_x0020_1">
  <metadata id="CorelCorpID_0Corel-Layer"/>
  <path class="fil0" d="M3826.49 696.24c-210.95,-206.94 -384.99,-438.84 -549.5,-677.61 -24.64,-35.76 -42.31,-17.46 -37.66,33 36.28,387.95 180.27,713.69 424.87,990.56 139.86,159.54 -36.82,192.44 -188.1,186.1 -191.39,-8.05 -214.56,-87.17 -285.86,-161.13 -192.97,-200.05 -308.29,-359.39 -721.1,-349.75 -24.33,0.53 -48.13,-2.44 -67.6,4.44 -354.83,125.47 6.24,823.39 185.78,780.34l10.26 75.75 118.5 39.36c17.77,-5.51 32.59,-19.16 55.44,-31.21 -8.57,22.95 -9.31,37.77 -17.88,60.72 28.67,-18.51 49.3,-28.88 77.97,-47.39 -4.76,22.64 -9.51,45.18 -14.28,67.81 46.87,3.17 95.85,16.82 139.55,3.7 174.88,-52.37 264.9,-52.69 340.76,-0.64 172.86,118.6 147.9,256.97 43.16,398.42 -291.26,431.43 -491.95,948.98 -683.33,1475.41 -108.86,23.8 -217.72,47.62 -326.59,71.42 -85.59,-192.55 -85.59,-225.13 -58.29,-306.17 64.75,-191.81 95.32,-306.7 -22.95,-492.15 -325.65,-479.46 -643.66,-945.81 -969.29,-1425.27 -15.02,-26.03 -64.01,4.33 -46.44,34.8 269.98,465.07 532.25,916.92 802.24,1381.99 -35.87,19.9 -71.73,39.68 -107.6,59.57 -269.77,-465.28 -531.3,-916.18 -801.08,-1381.47 -15.23,-26.34 -71.94,7.08 -57.13,32.8 265.44,466.66 522.62,918.93 788.06,1385.59 -31.85,20 -63.58,39.99 -95.42,59.99 -268.83,-467.93 -541.88,-912.69 -810.71,-1380.63 -16.28,-28.13 -72.36,13.34 -54.8,43.8 269.88,466.03 530.88,916.4 800.76,1382.42 -33.54,18.83 -67.08,37.67 -100.61,56.5 -274.11,-469.1 -539.44,-923.27 -813.56,-1392.37 -6.98,-12.16 -45.81,-2.54 -39.04,22.54 246.51,516.59 485.49,1020.18 731.05,1535.08 66.86,140.27 161.97,226.18 296.75,263.1 224.18,61.26 168.53,5.72 325.42,179.85 13.75,15.77 27.61,31.42 41.36,47.19 1311.01,42.52 2622.12,84.95 3933.13,127.47 3.28,-15.66 6.56,-31.41 9.84,-47.08 82.42,-175.93 1294.5,-2914.96 891.32,-2644.34 -482.43,823.09 -964.74,1646.27 -1447.17,2469.36 -250.51,-50.26 -501.04,-100.61 -751.56,-150.87 149.7,-135.09 299.39,-270.2 449.1,-405.29 164.61,-26.34 329.34,-52.58 493.95,-78.93 60.52,-115.32 120.93,-230.63 181.43,-345.95 -0.21,-43.16 -0.41,-86.22 -0.63,-129.39 44.21,-139.76 -39.57,-178.9 -48.03,-328.91 -12.59,-223.87 11.31,-210.85 -142.4,-349.97 113.62,-56.7 227.25,-113.3 340.87,-170.01 -212.64,-11.54 -425.19,-22.96 -637.83,-34.49 -21.7,-55.86 -43.49,-111.61 -65.17,-167.48 -118.39,-70.03 -236.66,-140.17 -355.04,-210.22 -353.78,-489.51 -588.43,-459.56 -1108.52,-540.18 -15.98,-2.33 -44.86,-8.89 -56.39,-20.21z"/>
  <g style="clip-path:url(#id0)">
   <g id="_1633261845888">
    <g>
     <path id="_1" class="fil1" d="M5893.82 2628.9c-5.82,3.38 -17.46,-11.54 -23.27,-41.8 -5.82,-30.25 -5.82,-75.85 -5.51,-110.98 0.31,-35.23 0.85,-59.88 -2.44,-78.18 -3.28,-18.41 -10.46,-30.36 -16.18,-40.83 -5.71,-10.59 -9.95,-19.57 -12.9,-26.77 -3.08,-7.2 -4.87,-12.7 -9.63,6.24 -4.87,18.93 -12.59,62.2 -16.82,85.06 -4.23,22.85 -4.76,25.18 -26.66,18.3 -22.01,-6.87 -65.27,-23.16 -124.2,-50.15 -58.93,-27.08 -133.4,-64.85 -193.82,-88.24 -60.41,-23.48 -106.75,-32.58 -156.25,-33.74 -49.62,-1.28 -102.52,5.39 -159.53,24.33 -57.14,18.93 -118.5,50.15 -179.43,83.26 -61.04,33.01 -121.78,67.93 -176.46,96.8 -54.7,28.78 -103.37,51.63 -138.17,66.12 -34.91,14.39 -55.86,20.31 -69.09,19.47 -13.22,-0.95 -18.72,-8.78 -24.43,-18.62 -5.72,-9.95 -11.64,-22.01 -13.44,-39.67 -1.8,-17.78 0.53,-41.16 16.82,-72.37 16.19,-31.31 46.23,-70.46 69.4,-100.72 23.06,-30.36 39.36,-52.05 53.54,-85.37 14.07,-33.33 26.02,-78.4 36.28,-115.96 10.26,-37.56 18.62,-67.6 43.27,-105.47 24.65,-37.88 65.59,-83.58 114.26,-126.22 48.67,-42.74 105.16,-82.31 164.94,-111.4 59.77,-29.2 122.93,-47.92 181.22,-57.77 58.29,-9.94 111.73,-11.21 140.29,-10.58 28.57,0.64 32.16,2.97 37.03,-4.54 4.76,-7.52 10.79,-24.87 14.39,-34.81 3.59,-9.94 4.87,-12.27 36.07,-11.64 31.21,0.54 92.58,4.13 156.26,6.88 63.69,2.64 129.81,4.44 185.14,5.39 55.23,0.85 99.76,0.85 128.33,0.85 28.46,0 41.15,0 20.1,4.86 -21.05,4.77 -75.75,14.39 -127.38,22.85 -51.72,8.36 -100.5,15.67 -147.9,17.14 -47.5,1.48 -93.84,-2.75 -122.93,-4.23 -29.21,-1.59 -41.16,-0.31 -49.31,1.8 -8.15,2.12 -12.28,5.07 -15.23,7.19 -3.08,2.13 -4.87,3.39 11.1,9.1 15.87,5.62 49.52,15.88 85.91,31.21 36.29,15.24 75.43,35.76 116.9,66.12 41.47,30.26 85.27,70.57 112.35,98.5 27.09,27.92 37.24,43.59 39.04,51.41 1.8,7.83 -4.76,7.83 -5.39,17.77 -0.64,9.85 4.87,29.73 9.74,47.72 4.76,17.98 8.89,34.28 9.2,58.93 0.31,24.54 -3.28,57.65 -0.21,94.58 2.97,36.92 12.59,77.86 23.38,113.94 10.8,35.97 22.85,67.28 31.21,89.18 8.26,21.8 13.01,34.39 10.05,51.85 -3.07,17.35 -13.75,39.67 -19.04,61.67 -5.29,21.9 -5.18,43.37 -5.08,64.96 0.1,21.59 0.21,43.16 -5.51,46.55z"/>
     <path class="fil1" d="M4065.69 1611.05c-25.6,-1.69 -58.61,-7.62 -87.49,-17.24 -28.88,-9.63 -53.64,-22.96 -72.26,-41.79 -18.62,-18.94 -31.21,-43.17 -35.34,-72.47 -4.23,-29.42 -0.1,-63.7 15.03,-106.43 15.02,-42.74 41.05,-93.84 69.5,-140.07 28.46,-46.34 59.46,-87.81 90.24,-120.6 30.79,-32.91 61.36,-57.24 87.81,-72.9 26.34,-15.66 48.56,-22.85 76.8,-23.06 28.25,-0.21 62.63,6.56 92.57,20 29.95,13.33 55.44,33.43 79.78,55.23 24.33,21.79 47.28,45.17 66.23,71.2 18.83,25.92 33.43,54.49 45.8,89.93 12.38,35.34 22.43,77.55 28.36,112.57 5.82,34.91 7.41,62.63 10.15,82.94 2.75,20.31 6.46,33.21 9,40.83 2.54,7.51 3.81,9.52 -14.6,12.9 -18.41,3.39 -56.59,7.93 -87.17,9.84 -30.57,1.91 -53.53,1.06 -77.01,7.2 -23.49,6.03 -47.29,18.94 -86.65,34.91 -39.46,15.87 -94.26,34.8 -130.65,45.49 -36.5,10.69 -54.6,13.13 -80.09,11.54z"/>
     <path class="fil2" d="M3946.56 1373.54c15.55,-17.88 51,-50.89 82.21,-79.03 31.1,-28.14 58.08,-51.52 80.72,-66.23 22.64,-14.7 40.95,-20.74 60.62,-20.74 19.57,0 40.52,6.03 61.78,20.84 21.16,14.82 42.85,38.51 60.31,61.78 17.46,23.18 30.79,46.13 41.57,64.64 10.8,18.41 19.15,32.49 23.28,39.68 4.13,7.08 4.13,7.4 -5.92,8.04 -10.05,0.64 -30.16,1.59 -52.9,3.39 -22.75,1.79 -48.24,4.23 -71.21,9.94 -23.06,5.61 -43.59,14.5 -64.85,20.52 -21.26,6.03 -43.16,9.31 -62,9.63 -18.93,0.21 -34.7,-2.65 -52.16,-8.05 -17.56,-5.39 -36.6,-13.43 -54.9,-20.74 -18.41,-7.3 -36.08,-13.75 -46.98,-18.41 -10.9,-4.66 -15.23,-7.51 0.43,-25.28z"/>
     <path class="fil1" d="M4202.38 1259.29c1.27,10.26 0.1,29.94 -5.4,47.82 -5.5,17.87 -15.23,33.85 -24.86,44.75 -9.63,10.9 -18.94,16.82 -27.83,19.57 -8.99,2.75 -17.56,2.54 -27.51,-1.06 -10.05,-3.59 -21.69,-10.47 -29.94,-18.93 -8.36,-8.57 -13.54,-18.62 -14.28,-29.62 -0.85,-11 2.74,-22.85 10.47,-33.85 7.61,-11.01 19.46,-21.06 38.61,-27.62 19.05,-6.66 45.39,-9.74 60.52,-10.9 15.02,-1.16 18.83,-0.41 20.21,9.85z"/>
     <path class="fil3" d="M3325.13 138.49c172.66,203.44 346.26,440 518.08,610.22 17.98,40.41 19.25,80.72 2.64,121.14 -57.34,-56.08 -114.58,-112.25 -171.92,-168.32 -1.69,-26.45 -3.28,-52.9 -4.97,-79.35 -104.52,59.99 -313.05,-403.19 -343.83,-483.69z"/>
     <path class="fil2" d="M5274.61 1878.5c10.15,-4.02 29.51,-15.34 41.57,-21.69 12.06,-6.46 16.82,-8.15 38.72,-2.22 21.9,5.82 60.94,19.15 87.17,32.05 26.24,12.8 39.57,25.29 48.46,41.26 8.89,15.87 13.33,35.23 11.32,52.9 -2.01,17.67 -10.37,33.64 -25.93,48.56 -15.66,14.82 -38.29,28.57 -60.41,35.98 -22.11,7.41 -43.69,8.25 -62,5.39 -18.41,-2.97 -33.64,-9.74 -47.18,-18.72 -13.65,-9 -25.49,-20.32 -43.49,-46.66 -18.08,-26.34 -42.21,-67.7 -58.18,-98.7 -16.08,-31.1 -24.13,-51.63 -28.99,-64.64 -4.97,-13.01 -6.77,-18.41 -8.15,-21.9 -1.48,-3.49 -2.43,-5.19 12.7,-8.89 15.02,-3.7 46.23,-9.63 62.21,-12.49 15.87,-2.97 16.51,-2.97 17.35,10.36 0.85,13.34 1.8,40.11 2.75,55.12 0.95,14.92 1.8,18.2 12.06,14.28z"/>
    </g>
    <path class="fil3" d="M3618.17 1725.39c2.63,1.43 5.31,8.63 8.08,24.73 2.76,16.1 5.62,41.09 7.19,62.18 1.57,21.09 1.85,38.28 0.22,70.76 -1.63,32.48 -5.19,80.24 -10.39,127.9 -5.2,47.66 -12.04,95.2 -23.25,166.3 -11.2,71.1 -26.77,165.75 -36,228.86 -9.23,63.11 -12.13,94.67 -12.77,125.3 -0.65,30.62 0.98,60.3 3.82,82.53 2.82,22.23 6.86,37.02 12.11,49.27 5.24,12.26 11.71,21.97 20.78,30.35 9.07,8.37 20.76,15.39 32.83,19.86 12.06,4.45 24.51,6.35 38.57,6.46 14.06,0.11 29.72,-1.57 44.83,-4.93 15.11,-3.36 29.66,-8.42 44.13,-15.28 14.47,-6.87 28.86,-15.54 40.6,-23.3 11.73,-7.75 20.82,-14.57 31.88,-23.32 11.05,-8.74 24.09,-19.41 35.21,-28.66 11.12,-9.26 20.34,-17.09 33.04,-27.91 12.7,-10.83 28.87,-24.64 44.6,-37.74 15.73,-13.11 30.99,-25.5 45.49,-36.46 14.5,-10.96 28.25,-20.49 40.76,-28.12 12.51,-7.64 23.8,-13.39 33.78,-17.73 9.98,-4.35 18.64,-7.3 29.17,-9 10.51,-1.71 22.88,-2.19 18.13,5.36 -4.76,7.55 -26.66,23.11 -44.92,38.14 -18.28,15.02 -32.94,29.49 -47.24,46.24 -14.3,16.75 -28.24,35.77 -45.68,61.57 -17.45,25.79 -38.41,58.35 -59.22,88.96 -20.82,30.6 -41.51,59.25 -60.27,80.86 -18.75,21.6 -35.56,36.15 -50.95,46.02 -15.4,9.86 -29.38,15.01 -47.06,17.92 -17.69,2.91 -39.07,3.59 -59.61,2.19 -20.54,-1.41 -40.23,-4.9 -62.22,-11.36 -21.99,-6.47 -46.29,-15.92 -66.93,-26.52 -20.66,-10.61 -37.66,-22.37 -50.22,-31.94 -12.57,-9.58 -20.71,-16.97 -33.13,-32 -12.43,-15.04 -29.15,-37.72 -41.13,-59.69 -11.98,-21.97 -19.23,-43.24 -23.74,-60.08 -4.51,-16.85 -6.29,-29.28 -8.22,-43.46 -1.92,-14.19 -3.99,-30.13 -1.51,-54.25 2.47,-24.13 9.48,-56.43 17.72,-86.49 8.23,-30.06 17.7,-57.87 29.86,-91.05 12.15,-33.18 27,-71.75 39.58,-106.01 12.57,-34.27 22.87,-64.23 32.16,-94.3 9.28,-30.07 17.57,-60.23 26.46,-106.34 8.9,-46.12 18.42,-108.17 28.75,-161.84 10.32,-53.68 21.47,-98.97 27.76,-123.69 6.28,-24.72 7.72,-28.86 9.73,-33.11 2,-4.25 4.59,-8.6 7.23,-7.17z"/>
   </g>
  </g>
  <path class="fil4" d="M3826.49 696.24c-210.95,-206.94 -384.99,-438.84 -549.5,-677.61 -24.64,-35.76 -42.31,-17.46 -37.66,33 36.28,387.95 180.27,713.69 424.87,990.56 139.86,159.54 -36.82,192.44 -188.1,186.1 -191.39,-8.05 -214.56,-87.17 -285.86,-161.13 -192.97,-200.05 -308.29,-359.39 -721.1,-349.75 -24.33,0.53 -48.13,-2.44 -67.6,4.44 -354.83,125.47 6.24,823.39 185.78,780.34l10.26 75.75 118.5 39.36c17.77,-5.51 32.59,-19.16 55.44,-31.21 -8.57,22.95 -9.31,37.77 -17.88,60.72 28.67,-18.51 49.3,-28.88 77.97,-47.39 -4.76,22.64 -9.51,45.18 -14.28,67.81 46.87,3.17 95.85,16.82 139.55,3.7 174.88,-52.37 264.9,-52.69 340.76,-0.64 172.86,118.6 147.9,256.97 43.16,398.42 -291.26,431.43 -491.95,948.98 -683.33,1475.41 -108.86,23.8 -217.72,47.62 -326.59,71.42 -85.59,-192.55 -85.59,-225.13 -58.29,-306.17 64.75,-191.81 95.32,-306.7 -22.95,-492.15 -325.65,-479.46 -643.66,-945.81 -969.29,-1425.27 -15.02,-26.03 -64.01,4.33 -46.44,34.8 269.98,465.07 532.25,916.92 802.24,1381.99 -35.87,19.9 -71.73,39.68 -107.6,59.57 -269.77,-465.28 -531.3,-916.18 -801.08,-1381.47 -15.23,-26.34 -71.94,7.08 -57.13,32.8 265.44,466.66 522.62,918.93 788.06,1385.59 -31.85,20 -63.58,39.99 -95.42,59.99 -268.83,-467.93 -541.88,-912.69 -810.71,-1380.63 -16.28,-28.13 -72.36,13.34 -54.8,43.8 269.88,466.03 530.88,916.4 800.76,1382.42 -33.54,18.83 -67.08,37.67 -100.61,56.5 -274.11,-469.1 -539.44,-923.27 -813.56,-1392.37 -6.98,-12.16 -45.81,-2.54 -39.04,22.54 246.51,516.59 485.49,1020.18 731.05,1535.08 66.86,140.27 161.97,226.18 296.75,263.1 224.18,61.26 168.53,5.72 325.42,179.85 13.75,15.77 27.61,31.42 41.36,47.19 1311.01,42.52 2622.12,84.95 3933.13,127.47 3.28,-15.66 6.56,-31.41 9.84,-47.08 82.42,-175.93 1294.5,-2914.96 891.32,-2644.34 -482.43,823.09 -964.74,1646.27 -1447.17,2469.36 -250.51,-50.26 -501.04,-100.61 -751.56,-150.87 149.7,-135.09 299.39,-270.2 449.1,-405.29 164.61,-26.34 329.34,-52.58 493.95,-78.93 60.52,-115.32 120.93,-230.63 181.43,-345.95 -0.21,-43.16 -0.41,-86.22 -0.63,-129.39 44.21,-139.76 -39.57,-178.9 -48.03,-328.91 -12.59,-223.87 11.31,-210.85 -142.4,-349.97 113.62,-56.7 227.25,-113.3 340.87,-170.01 -212.64,-11.54 -425.19,-22.96 -637.83,-34.49 -21.7,-55.86 -43.49,-111.61 -65.17,-167.48 -118.39,-70.03 -236.66,-140.17 -355.04,-210.22 -353.78,-489.51 -588.43,-459.56 -1108.52,-540.18 -15.98,-2.33 -44.86,-8.89 -56.39,-20.21z"/>
  <path class="fil0" d="M5669.53 6255.75l-417.47 723c-764.36,-485.18 -1920.07,-475.97 -2685.81,0l-424.97 -736.23c-297.5,152.25 -584.62,343.94 -857.15,574.37 -428.04,-426.99 -856.09,-853.87 -1284.13,-1280.86 315.06,-291.36 662.7,-540.93 1033.61,-747.64l-225.12 -534.59c1990.42,-1189.02 4475.85,-1028.75 6199.78,-4.54l-243.23 543.04c457.88,247.67 648.63,389.86 1050.96,743.74 -426.99,426.99 -853.86,853.87 -1280.85,1280.86 -282.05,-225.98 -571.61,-412.5 -865.61,-561.14z"/>
  <path class="fil3" d="M7514.16 5640.06c-313.34,313.34 -622.92,630.33 -936.36,943.56l-92.23 92.24 -104.76 -77.63c-1667.57,-1236.34 -3659.24,-1022.65 -5039.68,59.48l-89 -87.24c-315.84,-309.47 -637.74,-612.69 -953.58,-922.17l-122.81 -120.41 135.02 -106.53c2198.05,-1732.37 4987.71,-1724.24 7189.52,-7.62l135.02 105.29 -121.14 121.03z"/>
  <path class="fil5" d="M2587.21 6843.97c817.69,-408.27 1689.76,-420.53 2619.16,-11.32 116.58,-203.86 253.28,-419.27 369.86,-623.13 -1072.55,-519.67 -2236.51,-514.9 -3341.85,-2.75 113.84,205.98 239,431.22 352.83,637.2zm-1264.67 -366.79c-316.44,-310.08 -650.42,-624.93 -966.86,-935.01 2194.61,-1729.75 4945.27,-1687.43 7100.31,-7.2 -310.19,310.08 -639.22,646.61 -949.41,956.7 -1519.95,-1125.23 -3464.35,-1198.55 -5184.04,-14.49zm-146.94 -1762.64c1736.83,-864.14 3650.44,-870.37 5475.5,0 69.09,-167.48 138.17,-334.84 207.26,-502.31 -1664.48,-920.94 -4231.48,-982.73 -5899.96,0 72.36,167.47 144.83,334.83 217.2,502.31z"/>
  <g style="clip-path:url(#id1)">
   <g id="_1633261854000">
    <path id="_1_0" class="fil6" d="M1150.09 6989.12l-115.32 21.7 3642.83 -3652.35 115.43 0 -3642.94 3630.65zm2668.56 8.57l-115.32 21.69 3585.07 -3596.91 115.42 0 -3585.17 3575.23zm279.93 0l-115.32 21.69 3585.07 -3596.91 115.42 0 -3585.17 3575.23zm267.24 0l-115.32 21.69 3585.06 -3596.91 115.42 0 -3585.16 3575.23zm252.85 0l-115.32 21.69 3585.06 -3596.91 115.42 0 -3585.16 3575.23zm267.87 0l-115.32 21.69 3585.06 -3596.91 115.42 0 -3585.16 3575.23zm270.51 0l-115.31 21.69 3585.06 -3596.91 115.42 0 -3585.17 3575.23zm253.91 0l-115.32 21.69 3585.06 -3596.91 115.42 0 -3585.16 3575.23zm271.26 0l-115.32 21.69 3585.06 -3596.91 115.42 0 -3585.16 3575.23zm692.32 -432.59l-115.32 21.69 3216.48 -3228.32 115.42 0 -3216.58 3206.63zm-4942.63 432.59l-115.31 21.69 3585.06 -3596.91 115.42 0 -3585.17 3575.23zm279.93 0l-115.31 21.69 3585.06 -3596.91 115.42 0 -3585.17 3575.23zm267.24 0l-115.32 21.69 3585.06 -3596.91 115.42 0 -3585.16 3575.23zm252.85 0l-115.32 21.69 3585.06 -3596.91 115.42 0 -3585.16 3575.23zm267.87 0l-115.32 21.69 3585.06 -3596.91 115.43 0 -3585.17 3575.23zm270.52 0l-115.32 21.69 3585.06 -3596.91 115.42 0 -3585.16 3575.23zm253.9 0l-115.32 21.69 3585.06 -3596.91 115.43 0 -3585.17 3575.23zm271.26 0l-115.32 21.69 3585.06 -3596.91 115.42 0 -3585.16 3575.23zm265.33 -5.71l-115.32 21.69 3643.47 -3655.21 115.42 0 -3643.57 3633.52zm-4540.28 5.71l-115.32 21.69 3585.06 -3596.91 115.42 0 -3585.16 3575.23zm279.93 0l-115.32 21.69 3585.06 -3596.91 115.42 0 -3585.16 3575.23zm267.23 0l-115.31 21.69 3585.06 -3596.91 115.42 0 -3585.17 3575.23zm252.85 0l-115.32 21.69 3585.06 -3596.91 115.43 0 -3585.17 3575.23zm267.87 0l-115.31 21.69 3585.06 -3596.91 115.42 0 -3585.17 3575.23zm270.52 0l-115.32 21.69 3585.06 -3596.91 115.43 0 -3585.17 3575.23zm253.9 0l-115.31 21.69 3585.06 -3596.91 115.42 0 -3585.17 3575.23zm271.26 0l-115.32 21.69 3585.06 -3596.91 115.43 0 -3585.17 3575.23z"/>
    <path class="fil6" d="M1694.51 3422.46l115.42 0c-4476.17,4463.8 -4703.32,4603.03 -115.42,0zm271.26 0l115.42 0c-4476.17,4463.8 -4703.32,4603.03 -115.42,0zm323.73 -64l115.42 0c-4010.46,3998.08 -4237.82,4137.63 -115.42,0z"/>
    <path class="fil3" d="M2804.19 6311.72l39.03 63.37 72.16 -17.88 -48.24 56.6 39.25 63.37 -68.77 -28.36 -47.92 56.81 5.61 -74.26 -68.88 -28.14 72.26 -17.36 5.51 -74.16zm1104.91 -350.08l43.8 134.99 141.87 -0.41 -115.11 83.36 44.11 134.99 -114.68 -83.78 -114.57 83.78 44.11 -135.2 -115.11 -83.15 141.87 0.41 43.69 -134.99zm598.06 138.07l-51.31 87.06 -98.5 -22.21 67.19 75.75 -51.63 87.06 92.68 -40.51 66.75 75.85 -9.84 -100.61 92.78 -40.2 -98.6 -21.59 -9.52 -100.6zm500.31 212.01l-39.04 63.37 -72.15 -17.88 48.24 56.71 -39.26 63.26 68.77 -28.36 48.03 56.81 -5.71 -74.26 68.87 -28.04 -72.26 -17.46 -5.5 -74.16zm-1710.38 -212.01l51.31 87.17 98.6 -22.22 -67.19 75.65 51.53 87.06 -92.68 -40.51 -66.75 75.95 9.84 -100.82 -92.89 -40.1 98.71 -21.59 9.52 -100.6z"/>
   </g>
  </g>
  <path class="fil4" d="M2587.21 6843.97c817.69,-408.27 1689.76,-420.53 2619.16,-11.32 116.58,-203.86 253.28,-419.27 369.86,-623.13 -1072.55,-519.67 -2236.51,-514.9 -3341.85,-2.75 113.84,205.98 239,431.22 352.83,637.2zm-1264.67 -366.79c-316.44,-310.08 -650.42,-624.93 -966.86,-935.01 2194.61,-1729.75 4945.27,-1687.43 7100.31,-7.2 -310.19,310.08 -639.22,646.61 -949.41,956.7 -1519.95,-1125.23 -3464.35,-1198.55 -5184.04,-14.49zm-146.94 -1762.64c1736.83,-864.14 3650.44,-870.37 5475.5,0 69.09,-167.48 138.17,-334.84 207.26,-502.31 -1664.48,-920.94 -4231.48,-982.73 -5899.96,0 72.36,167.47 144.83,334.83 217.2,502.31z"/>
  <path class="fil7" d="M1237.37 5335.45c-12.69,-12.8 -36.29,-34.81 -60.19,-48.88 -23.91,-14.07 -48.24,-20.31 -69.72,-23.28 -21.49,-2.97 -40.1,-2.64 -60.94,2.33 -20.84,4.87 -43.8,14.39 -62.63,27.41 -18.82,12.9 -33.64,29.3 -43.59,45.38 -10.05,16.08 -15.23,31.75 -16.71,49.31 -1.49,17.56 0.74,36.82 8.36,57.03 7.51,20.1 20.31,41.15 34.9,59.03 14.6,17.88 30.9,32.59 48.67,43.9 17.67,11.32 36.72,19.26 62.63,23.7 25.92,4.33 58.72,5.39 93.63,4.87 34.9,-0.54 71.93,-2.44 108.33,-3.92 36.39,-1.48 72.16,-2.54 104.63,0.43 32.49,2.96 61.57,9.84 89.93,21.05 28.36,11.11 55.96,26.45 81.25,47.61 25.18,21.16 48.13,48.03 66.86,79.24 18.61,31.11 33.11,66.44 42.1,97.02 9,30.46 12.59,56.07 10.79,82.2 -1.79,26.03 -8.99,52.58 -24.22,79.35 -15.24,26.66 -38.52,53.53 -62.11,75.32 -23.59,21.79 -47.61,38.51 -72.68,53.74 -25.07,15.24 -51.31,28.99 -80.93,42.42 -29.73,13.44 -62.85,26.56 -88.86,35.24 -26.13,8.67 -45.08,13 -58.5,15.76 -13.44,2.75 -21.37,4.13 -30.37,-1.48 -8.99,-5.61 -19.25,-17.98 -45.59,-47.82 -26.45,-29.83 -68.98,-77.13 -90.78,-101.88 -21.79,-24.76 -22.85,-26.98 -20.2,-31.75 2.64,-4.76 8.77,-11.95 12.9,-16.39 4.13,-4.44 6.03,-6.03 14.92,1.69 8.89,7.62 24.65,24.75 45.7,41.37 20.95,16.51 47.08,32.48 74.7,41.57 27.51,9 56.39,10.9 85.9,8.78 29.52,-2.12 59.67,-8.36 92.99,-24.23 33.22,-15.98 69.62,-41.47 93.21,-66.86 23.59,-25.49 34.49,-50.67 40.1,-73.63 5.51,-22.95 5.82,-43.59 -0.85,-66.54 -6.77,-22.96 -20.52,-48.14 -38.08,-68.67 -17.56,-20.52 -38.83,-36.18 -61.78,-47.82 -22.96,-11.64 -47.61,-19.26 -90.67,-21.69 -43.16,-2.44 -104.73,0.1 -154.04,0.31 -49.41,0.11 -86.54,-2.12 -118.81,-7.82 -32.26,-5.82 -59.88,-14.92 -91.19,-32.49 -31.31,-17.56 -66.33,-43.48 -95.32,-73.1 -29.1,-29.73 -51.95,-63.16 -66.23,-88.24 -14.28,-25.08 -19.78,-41.79 -22.54,-64.75 -2.85,-22.95 -2.85,-52.05 0.95,-79.24 3.7,-27.29 11.22,-52.47 28.99,-77.75 17.67,-25.29 45.49,-50.47 80.08,-73.11 34.6,-22.64 75.96,-42.64 109.29,-56.92 33.22,-14.28 58.4,-22.75 75.54,-27.51 17.03,-4.77 25.82,-5.82 51.95,24.44 26.03,30.15 69.3,91.4 91.62,122.72 22.32,31.32 23.59,32.69 18.94,38.09 -4.77,5.39 -15.67,14.92 -21.9,17.87 -6.24,2.97 -7.83,-0.74 -20.42,-13.43zm2376.57 -749.34c165.99,-21.47 326.59,127.06 358.75,331.88 32.16,204.81 -76.38,388.16 -242.27,409.63 -165.99,21.47 -326.59,-127.06 -358.75,-331.88 -32.16,-204.82 76.39,-388.16 242.27,-409.63zm-979.55 935.65c10.05,0.43 22.31,-0.74 44.33,-7.41 21.9,-6.77 53.42,-18.72 85.37,-34.49 31.74,-15.76 63.69,-35.33 88.02,-55.85 24.33,-20.52 40.73,-42.11 57.02,-70.04 16.19,-28.03 32.06,-62.73 40.31,-98.91 8.36,-36.29 9.21,-74.37 5.29,-115.01 -4.02,-40.72 -12.69,-84.21 -26.87,-122.83 -14.29,-38.72 -34.18,-72.47 -57.55,-101.98 -23.49,-29.52 -50.26,-54.8 -82.21,-75.01 -31.95,-20.21 -69.19,-35.44 -108.65,-43.59 -39.46,-8.25 -81.47,-9.31 -119.76,-6.67 -38.29,2.75 -73.21,9.1 -104.52,17.78 -31.42,8.46 -59.35,19.04 -74.37,25.81 -15.13,6.77 -17.36,9.85 22.74,123.04 40.1,113.3 122.62,336.75 167.69,449.63 45.06,112.89 53,115.11 63.16,115.53zm968.23 -999.97c261.74,-26.98 501.46,144.09 535.43,382.13 33.96,238.04 -150.86,452.8 -412.5,479.78 -261.74,26.87 -501.57,-144.2 -535.43,-382.24 -33.96,-238.05 150.76,-452.8 412.5,-479.67zm1291.33 348.91c-7.93,0 -22.54,-0.43 -31,-0.54 -8.57,-0.2 -10.9,-0.2 -13.01,-15.44 -2.12,-15.23 -4.13,-45.7 -12.16,-68.34 -8.05,-22.75 -22.21,-37.56 -44.01,-47.93 -21.9,-10.36 -51.52,-16.18 -97.96,-24.44 -46.44,-8.25 -109.92,-18.82 -144.52,-24.33 -34.6,-5.51 -40.42,-5.92 -43.91,-6.35 -3.59,-0.43 -4.87,-0.95 -10.89,45.49 -6.03,46.34 -16.83,139.76 -22.32,187.68 -5.61,47.82 -6.03,50.36 -1.28,52.26 4.66,1.8 14.39,2.97 65.7,9.95 51.21,6.88 143.99,19.36 192.76,25.6 48.78,6.13 53.64,6.03 52.9,20.62 -0.84,14.6 -7.3,44.01 -10.58,59.57 -3.28,15.44 -3.39,17.03 -53.85,5.51 -50.47,-11.54 -151.29,-36.08 -202.71,-48.35 -51.41,-12.38 -53.54,-12.38 -59.56,37.88 -6.14,50.15 -16.29,150.55 -20.63,200.9 -4.44,50.36 -3.28,50.78 26.87,57.65 30.05,6.88 89.09,20.42 131.19,28.98 42,8.57 67.08,12.38 87.6,12.28 20.42,-0.1 36.18,-4.02 53.32,-14.82 17.03,-10.79 35.44,-28.56 48.67,-43.59 13.12,-15.02 21.15,-27.51 26.87,-35.54 5.71,-8.05 9.31,-11.74 11.43,-14.07 2.12,-2.44 2.75,-3.49 10.26,-0.11 7.41,3.39 21.59,11.11 27.51,16.51 5.82,5.29 3.28,8.04 -12.16,38.41 -15.55,30.36 -44.01,88.34 -60.2,117.54 -16.28,29.2 -20.1,29.73 -48.66,23.7 -28.67,-6.14 -81.89,-18.94 -157.53,-33.01 -75.65,-14.07 -173.51,-29.41 -225.98,-38.41 -52.57,-8.99 -59.67,-11.43 -63.57,-14.28 -3.92,-2.85 -4.55,-6.03 0,-76.49 4.44,-70.46 14.17,-208.31 22.53,-321.09 8.26,-112.78 15.24,-200.48 18.09,-248.2 2.75,-47.71 1.38,-55.33 -2.75,-61.57 -4.23,-6.35 -11.21,-11.31 -19.36,-15.34 -8.15,-4.12 -17.24,-7.19 -29.62,-8.56 -12.49,-1.49 -28.25,-1.28 -36.72,-1.06 -8.46,0.21 -9.62,0.43 -10.15,-6.03 -0.53,-6.45 -0.32,-19.36 0,-26.23 0.21,-6.88 0.53,-7.51 39.88,-7.93 39.36,-0.54 117.65,-0.85 168.96,1.16 51.31,1.9 75.64,5.92 151.6,19.04 75.96,13.01 203.55,35.03 267.34,46.55 63.8,11.54 63.58,12.7 59.99,42.42 -3.7,29.73 -10.9,88.02 -14.5,118.17 -3.59,30.05 -3.59,31.74 -4.12,32.8 -0.64,1.05 -1.8,1.38 -9.74,1.38zm607.68 159.75c0.21,-20.74 -0.95,-59.67 -22.11,-92.88 -21.26,-33.11 -62.62,-60.63 -102.09,-75.55 -39.36,-15.02 -77.01,-17.35 -101.88,-17.35 -24.75,0 -36.71,2.54 -48.56,8.05 -11.75,5.61 -23.28,14.17 -34.39,26.13 -11,11.84 -21.69,27.29 -27.72,43.26 -6.13,15.87 -7.61,32.59 -7.4,48.46 0.31,15.77 2.33,30.9 23.27,57.77 20.85,26.66 60.62,65.17 100.83,100.19 40.31,34.91 80.83,66.33 108.01,93.42 27.3,26.97 41.16,49.51 51.32,71.41 10.05,21.9 16.39,43.06 19.77,65.49 3.39,22.21 3.7,45.6 -8.99,77.44 -12.8,31.95 -38.62,72.47 -64.96,99.98 -26.34,27.51 -53.21,42.11 -76.06,51.31 -22.85,9.1 -41.47,12.8 -83.37,10.26 -42,-2.64 -107.06,-11.53 -164.4,-28.77 -57.34,-17.14 -106.86,-42.42 -133.51,-57.24 -26.66,-15.02 -30.47,-19.57 -30.15,-27.4 0.21,-7.93 4.33,-19.05 10.89,-48.67 6.56,-29.62 15.34,-77.65 20.31,-102.41 4.98,-24.87 6.03,-26.34 10.16,-26.45 4.02,-0.1 10.79,1.28 16.61,2.33 5.72,0.95 10.26,1.59 12.7,10.26 2.33,8.67 2.54,25.39 2.64,43.37 0.11,17.88 0.32,37.14 11.43,61.47 11.11,24.33 33.22,53.75 61.78,72.9 28.67,19.04 63.8,27.82 103.47,33.95 39.67,6.03 83.79,9.52 120.71,-21.26 36.92,-30.79 66.55,-96.06 38.51,-155.94 -28.03,-59.88 -113.62,-114.68 -175.4,-167.47 -61.68,-52.8 -99.55,-103.58 -116.7,-145.05 -17.13,-41.47 -13.44,-73.52 -5.18,-103.04 20.52,-73.74 47.5,-110.24 117.01,-144.09 19.46,-9.62 39.77,-18.09 77.97,-22.43 38.19,-4.23 94.27,-4.55 153.51,8.67 59.14,13.23 121.35,39.78 159.86,59.57 38.51,19.77 53.32,32.9 62.62,42 9.42,9.1 13.34,14.38 5.82,43.69 -7.61,29.2 -26.44,82.42 -36.18,109.71 -9.62,27.29 -10.05,28.56 -17.46,27.72 -7.4,-0.95 -21.9,-4.23 -28.25,-6.98 -6.46,-2.85 -4.66,-5.18 -4.44,-25.82zm555 101.78c-113.41,225.23 -226.71,450.47 -340.13,675.71 -37.45,-14.39 -74.9,-28.78 -112.35,-43.16 111.93,-228.52 223.97,-457.03 335.9,-685.56 -54.06,-21.58 -108.01,-43.16 -140.92,-54.27 -33,-11.21 -44.85,-11.95 -57.97,-9.62 -13.13,2.33 -27.62,7.83 -40.73,17.57 -13.12,9.73 -25.08,23.69 -34.91,36.18 -9.95,12.38 -17.77,23.16 -25.71,33.95 -2.12,3.6 -4.34,7.2 -6.46,10.8 -14.07,-7.93 -28.14,-15.87 -42.21,-23.8 32.06,-61.58 64.11,-123.04 96.17,-184.61 218.15,97.54 436.3,195.09 654.44,292.62 -32.05,58.29 -64,116.7 -96.06,174.99 -12.59,-4.66 -25.28,-9.42 -37.87,-14.08 8.25,-26.66 16.61,-53.21 21.26,-73.74 4.66,-20.52 5.82,-35.02 1.38,-49.19 -4.55,-14.28 -14.7,-28.25 -44.54,-45.49 -29.95,-17.36 -79.55,-37.77 -129.28,-58.29zm776.43 392.91c5.39,-13.75 18.62,-39.13 26.77,-59.03 8.15,-20 11.21,-34.38 10.9,-45.49 -0.43,-11.11 -4.13,-18.83 -37.98,-43.48 -33.85,-24.65 -97.75,-66.12 -133.19,-89.3 -35.55,-23.27 -42.64,-28.25 -47.29,-31.1 -4.77,-2.85 -7.2,-3.49 -18.83,11 -11.64,14.49 -32.69,44.22 -66.23,92.36 -33.65,48.03 -79.78,114.58 -103.99,149.81 -24.34,35.23 -26.77,39.26 -25.93,42.75 0.85,3.38 4.77,6.13 45.91,25.38 41.16,19.26 119.45,54.81 159.76,73.22 40.31,18.41 42.74,19.57 33.33,32.16 -9.52,12.59 -30.68,36.71 -42.42,49.19 -11.85,12.48 -14.29,13.43 -51.21,-8.15 -37.03,-21.59 -108.76,-65.6 -145.89,-88.34 -37.13,-22.85 -39.67,-24.23 -75.64,26.87 -35.98,51 -105.38,154.46 -139.66,207.25 -34.28,52.69 -33.64,54.49 -11.53,67.71 22,13.22 65.49,37.77 95.11,53.21 29.52,15.44 45.39,21.79 60.93,25.71 15.55,3.82 30.79,5.29 46.66,2.44 15.76,-2.86 32.05,-9.85 51.73,-20.52 19.67,-10.8 42.84,-25.18 58.29,-35.87 15.44,-10.8 23.16,-17.88 29.09,-22.32 5.93,-4.55 9.85,-6.35 15.77,-3.59 5.92,2.64 13.65,9.94 17.14,14.59 3.38,4.55 2.43,6.46 -26.77,34.7 -29.31,28.14 -86.75,82.52 -117.65,110.66 -30.9,28.03 -35.23,29.62 -47.5,25.18 -12.27,-4.44 -32.48,-15.13 -92.46,-45.49 -60.09,-30.47 -159.76,-80.62 -210.96,-107.17 -51.2,-26.56 -53.74,-29.31 -52.89,-35.87 0.74,-6.67 5.07,-17.14 46.97,-83.58 41.79,-66.54 121.24,-189.16 191.38,-296.75 70.14,-107.7 130.97,-200.27 165.89,-254.85 34.91,-54.59 43.8,-71.09 47.18,-84.21 3.28,-13.13 0.85,-22.75 -7.2,-32.16 -8.15,-9.52 -22.1,-18.62 -32.48,-23.91 -10.36,-5.29 -17.13,-6.77 -21.16,-7.93 -4.02,-1.16 -5.18,-2.12 0.95,-12.9 6.14,-10.9 19.57,-31.75 27.72,-43.27 8.15,-11.54 10.9,-13.86 23.6,-7.93 12.59,5.92 34.9,20 117.64,66.01 82.63,45.91 225.45,123.78 301.41,165.89 75.96,42 84.85,48.46 89.93,52.16 5.08,3.59 6.35,4.54 -15.13,34.59 -21.47,30.05 -65.59,89.29 -87.8,119.34 -22.32,30.05 -22.85,31 -28.04,29.31 -5.18,-1.8 -15.02,-6.36 -21.16,-9.52 -6.13,-3.18 -8.56,-5.08 -3.07,-18.73zm-4689.24 -608.42c12.06,-1.9 30.79,-5.18 44.22,-7.3 13.43,-2.23 21.58,-3.39 29.3,1.05 7.62,4.34 14.82,14.29 49.41,96.27 34.49,81.99 96.49,236.03 142.61,348.81 46.03,112.67 76.17,183.97 92.68,222.38 16.39,38.41 19.15,43.8 29.62,43.27 10.36,-0.54 28.46,-7.09 73.74,-19.68 45.18,-12.59 117.65,-31.31 190.64,-68.87 72.9,-37.56 146.32,-94.06 192.12,-135.95 45.81,-42 63.91,-69.5 78.71,-107.8 14.82,-38.41 26.34,-87.81 32.16,-126.11 5.72,-38.41 5.72,-65.91 -0.53,-105.06 -6.35,-39.25 -19.05,-90.24 -37.34,-131.93 -18.41,-41.68 -42.53,-74.06 -71.52,-102.3 -29.1,-28.25 -63.16,-52.36 -101.78,-70.46 -38.72,-18.09 -81.99,-30.15 -128.65,-35.34 -46.65,-5.28 -96.49,-3.59 -146.1,1.91 -49.72,5.39 -99.02,14.81 -159.64,32.05 -60.62,17.24 -132.45,42.53 -188.42,65.06 -55.96,22.43 -95.96,42.11 -119.23,53.64 -23.39,11.54 -29.95,14.82 -31.32,21.69 -1.38,6.88 2.54,17.24 7.2,22.22 4.66,4.97 10.05,4.33 22.11,2.43zm-759.29 330.93c9.74,-2.75 26.03,-8.36 40.73,-8.36 14.7,0 27.72,5.61 66.75,60.19 38.94,54.6 103.79,158.27 158.28,244.18 54.48,85.8 98.49,153.83 133.62,199.1 35.12,45.28 61.36,67.71 89.71,84.32 28.25,16.51 58.61,27.08 86.85,29.41 28.14,2.23 53.96,-3.92 78.93,-14.81 24.97,-11.01 49.09,-26.67 70.88,-46.24 21.69,-19.67 41.16,-43.26 56.39,-62.1 15.23,-18.83 26.13,-32.9 33.21,-41.8 7.09,-8.99 10.37,-12.79 14.29,-10.26 3.81,2.54 8.25,11.43 14.28,22.01 6.03,10.47 13.44,22.74 18.31,29.83 4.76,7.08 6.98,8.89 20.84,2.97 13.85,-6.03 39.57,-20 54.49,-29.21 14.92,-9.2 19.25,-13.64 20.41,-19.25 1.16,-5.61 -0.63,-12.38 -60.72,-137.96 -60.09,-125.68 -178.37,-370.17 -239.84,-495.12 -61.57,-124.94 -66.44,-130.35 -74.16,-130.45 -7.72,-0.11 -18.41,4.97 -34.91,13.44 -16.61,8.35 -39.04,20.1 -51.52,27.08 -12.59,6.87 -15.34,8.99 -15.98,14.92 -0.63,5.82 0.64,15.44 53.96,122.29 53.21,106.75 158.48,310.73 211.38,413.23 52.79,102.52 53.31,103.68 43.16,116.38 -10.16,12.69 -30.9,36.92 -49.83,55.33 -19.05,18.41 -36.08,31 -56.28,39.04 -20.21,7.93 -43.38,11.43 -64.11,12.79 -20.74,1.28 -38.83,0.54 -58.19,-6.13 -19.36,-6.77 -39.99,-19.25 -97.76,-102.41 -57.76,-83.26 -152.86,-236.98 -213.6,-334.52 -60.72,-97.65 -87.06,-139.02 -102.3,-161.02 -15.23,-22.01 -19.25,-24.75 -29.41,-20.74 -10.16,4.02 -26.44,14.7 -51.95,32.79 -25.49,17.99 -60.19,43.27 -78.82,57.03 -18.72,13.75 -21.47,15.98 -19.26,21.69 2.12,5.72 9,15.13 14.08,19.89 5.08,4.77 8.36,5.08 18.08,2.44z"/>
  <path class="fil3" d="M1837.34 4091.51c-10.05,-10.47 -24.23,-28.88 -38.72,-41.9 -14.71,-13.01 -29.62,-20.84 -43.7,-24.02 -14.28,-3.39 -27.72,-2.01 -40.1,2.64 -12.48,4.66 -23.9,12.8 -31.42,22.85 -7.61,9.95 -11.21,21.8 -12.69,40.95 -1.49,19.15 -0.53,45.7 1.8,70.99 2.43,25.18 6.56,49.3 13.22,76.06 6.67,26.66 15.77,56.08 24.23,76.91 8.47,20.95 16.19,33.43 22.75,42.11 6.56,8.67 11.85,13.54 19.15,16.5 7.2,2.86 16.29,3.92 26.77,2.01 10.36,-1.9 22,-6.87 32.9,-15.23 11,-8.47 21.16,-20.52 28.14,-32.8 7.08,-12.28 10.89,-24.65 12.9,-37.03 1.9,-12.38 1.9,-24.54 1.9,-34.28 0,-9.95 0,-17.13 0.11,-22.43 0.1,-5.29 0.31,-8.67 2.64,-11.75 2.33,-3.07 6.88,-5.82 10.47,-7.72 3.59,-1.9 6.56,-2.64 9.62,-1.69 3.07,0.85 6.36,3.59 8.36,10.79 2.01,7.09 2.85,18.62 3.39,34.06 0.53,15.34 0.74,34.6 -2.97,52.27 -3.7,17.77 -11.21,34.06 -22.75,48.34 -11.53,14.28 -26.97,26.56 -44.85,37.77 -17.88,11.21 -37.98,21.37 -55.12,27.19 -17.03,5.82 -30.79,7.2 -47.28,4.44 -16.51,-2.75 -35.76,-9.62 -51.52,-20.85 -15.88,-11.21 -28.36,-26.76 -40.84,-49.4 -12.38,-22.65 -24.86,-52.37 -32.48,-87.07 -7.62,-34.8 -10.58,-74.59 -9.21,-105.9 1.16,-31.42 6.46,-54.6 19.16,-76.81 12.8,-22.21 33,-43.69 51.1,-59.24 17.98,-15.55 33.96,-25.39 48.56,-31.31 14.7,-6.14 28.14,-8.26 38.3,-8.36 10.05,-0.21 16.82,1.9 23.59,1.58 6.66,-0.41 13.43,-2.96 23.16,-10.58 9.62,-7.72 22.21,-20.31 29.41,-27.4 7.2,-7.2 8.78,-8.9 15.03,17.13 6.13,25.82 17.03,79.24 22.53,106.53 5.51,27.29 5.72,28.67 2.97,28.03 -2.85,-0.63 -8.46,-3.07 -18.51,-13.43zm3842.46 -266.82l55.54 55.65 -53.21 348.27 -57.23 15.34 195.09 64.85 -39.14 -53.32 54.59 -339.39 72.47 0 -228.1 -91.4zm-381.07 -4.76c-8.15,57.23 -24.75,170.53 -33.11,227.25 -8.46,56.59 -8.46,56.59 -21.58,59.77l-45.91 10.79 -47.62 -38.82 -86.44 -390.91 -65.9 -12.38 -169.59 354.31 -73.31 9.62 192.76 36.08 -58.83 -31.32 33.75 -64.32 114.15 22.32 8.25 58.93 -59.14 21.16 201.75 37.77 -9.41 2.22c80.29,18.09 160.48,36.19 240.79,54.27 -19.05,-14.39 -38.19,-28.77 -47.93,-36.29 -9.84,-7.4 -10.26,-7.93 -7.08,-25.92 3.28,-17.98 10.36,-53.42 15.13,-78.6 4.86,-25.28 7.51,-40.41 9.1,-48.56 1.37,-8.15 1.79,-9.42 10.15,-7.2 8.46,2.12 25.08,7.62 37.88,13.43 12.69,5.72 21.58,11.75 27.82,17.14 6.35,5.39 9.95,10.16 10.79,19.78 0.74,9.52 -1.48,23.9 -4.87,45.7 -3.38,21.59 -7.82,50.78 -6.13,72.36 1.69,21.59 9.74,35.55 36.18,48.67 26.34,13.01 71.09,25.29 115.96,37.34 -15.13,-15.44 -30.36,-30.79 -39.46,-41.67 -9.11,-11.01 -12.17,-17.57 -9.74,-37.03 2.43,-19.57 10.47,-52.16 14.92,-72.9 4.44,-20.74 5.5,-29.52 1.16,-39.99 -4.34,-10.58 -13.97,-22.64 -22.64,-30.67 -8.68,-7.93 -16.62,-11.64 -23.06,-14.28 -6.56,-2.75 -11.85,-4.45 -14.82,-5.51 -3.07,-1.06 -3.81,-1.48 3.7,-2.23 7.51,-0.74 23.49,-1.9 37.87,-5.39 14.29,-3.59 27.19,-9.41 37.03,-18.51 9.85,-9.1 16.72,-21.26 20.85,-34.81 4.12,-13.54 5.5,-28.56 0.95,-45.9 -4.55,-17.24 -15.24,-36.93 -27.08,-51.53 -11.96,-14.59 -25.08,-23.9 -41.05,-32.48 -15.98,-8.67 -34.7,-16.39 -60.63,-24.23 -25.92,-7.82 -59.03,-15.55 -92.57,-22.54 -33.54,-7.08 -67.6,-13.43 -93.62,-18.72 -26.03,-5.18 -44.01,-9.2 -53.85,-11.21 -9.74,-2.01 -11.32,-1.8 -2.12,4.44 9.2,6.13 29.3,18.52 39.88,24.75 10.68,6.14 11.95,6.14 13,6.77 0.96,0.64 1.59,1.8 -6.35,59.04zm120.29 -24.55c-9.52,49.41 -19.04,98.81 -28.56,148.22 17.77,3.39 35.54,6.67 49.62,7.83 13.97,1.16 24.33,0 32.9,-3.28 8.57,-3.49 15.44,-9.21 21.58,-20.42 6.14,-11.31 11.75,-28.25 14.6,-42.42 2.85,-14.28 2.97,-25.92 0.85,-35.44 -2.12,-9.62 -6.46,-17.24 -13.44,-23.9 -6.98,-6.57 -16.39,-12.17 -29.73,-17.14 -13.43,-4.97 -30.57,-9.21 -47.82,-13.44zm534.26 537.13l32.8 -55.44 95.53 42.11 1.59 66.44 -52.69 9.51 199.42 99.98 -45.06 -57.76 -53 -431.43 -57.45 -27.62 -170.96 336.11 -65.49 -6.66 167.99 80.4 -52.69 -55.65zm125.69 -52.26l-80.4 -39.78 63.69 -108.12 16.72 147.91zm-1049.7 -317.07l-92.36 -18.41 62.85 -119.44 29.51 137.85zm-291.67 -253.06c-13.65,-19.36 -26.34,-31.84 -39.57,-39.77 -13.23,-8.05 -26.98,-11.64 -40.52,-11.64 -13.54,0 -27.08,3.49 -37.13,10.05 -10.16,6.56 -16.93,16.29 -23.38,33.54 -6.46,17.13 -12.49,42 -16.72,66.33 -4.23,24.23 -6.46,47.93 -6.88,70.99 -0.41,23.06 0.95,45.49 1.8,57.03 0.74,11.53 0.95,12.38 3.81,23.38 2.75,11.11 8.26,32.59 16.93,47.72 8.67,15.13 20.42,23.9 32.8,29.2 12.16,5.08 24.75,6.46 39.98,2.85 15.13,-3.7 32.8,-12.38 45.18,-23.16 12.38,-10.9 19.57,-23.8 24.13,-33.64 4.44,-9.95 6.45,-16.62 7.93,-21.49 1.48,-4.87 2.54,-7.82 5.71,-9.94 3.07,-2.01 8.26,-3.07 12.49,-3.39 4.12,-0.53 7.08,-0.21 9.94,1.8 2.86,1.9 5.4,5.51 5.61,12.9 0.21,7.31 -2.12,18.31 -5.61,32.7 -3.59,14.49 -8.46,32.26 -17.35,43.79 -8.89,11.43 -21.9,16.4 -37.67,21.9 -15.87,5.4 -34.38,11.32 -55.11,11.32 -20.63,0.1 -43.37,-5.61 -61.78,-10.26 -18.52,-4.66 -32.69,-8.25 -48.35,-16.61 -15.76,-8.36 -32.9,-21.59 -45.7,-37.45 -12.69,-15.98 -21.16,-34.7 -27.51,-55.96 -6.45,-21.37 -11.1,-45.39 -11.21,-76.39 -0.21,-31.1 3.92,-69.4 12.38,-100.82 8.47,-31.42 21.26,-56.08 40.1,-74.37 18.73,-18.41 43.49,-30.37 67.08,-35.98 23.38,-5.82 45.39,-5.18 63.06,-3.17 17.56,2 30.67,5.5 40.3,9.41 9.63,3.92 15.77,8.25 24.03,13.44 8.25,5.18 18.72,11.31 31.84,10.79 13.12,-0.64 28.99,-7.93 37.98,-11.95 9,-4.13 11,-5.19 8.89,17.98 -2.12,23.06 -8.36,70.14 -14.59,117.22 -0.21,1.27 -0.32,2.54 -0.43,3.7 -14.39,-26.34 -28.88,-52.69 -42.42,-72.06zm-410.17 -31.63c-17.14,-20.42 -36.39,-34.39 -50.88,-42.85 -14.6,-8.57 -24.44,-11.74 -33.11,-13.65 -8.78,-1.79 -16.4,-2.33 -24.02,-1.27 -7.73,0.95 -15.67,3.38 -20.11,6.56 -4.44,3.18 -5.5,6.98 -5.71,12.9 -0.32,5.82 0,13.75 6.46,25.93 6.45,12.16 18.82,28.67 50.36,62.21 31.41,33.43 81.77,83.9 110.98,113.62 29.2,29.73 37.23,38.62 41.57,50.36 4.34,11.64 4.87,26.13 3.28,40.41 -1.69,14.18 -5.71,28.14 -15.97,39.26 -10.47,11 -27.29,18.93 -42.11,24.33 -14.82,5.29 -27.51,7.83 -44.11,8.67 -16.62,0.85 -37.24,-0.1 -57.03,-5.28 -19.78,-5.29 -38.83,-14.6 -50.36,-19.78 -11.53,-5.18 -15.44,-6.03 -22.85,-4.44 -7.51,1.69 -18.62,5.71 -27.51,9.2 -8.89,3.49 -15.77,6.24 -20.21,8.05 -4.44,1.69 -6.56,2.22 -6.98,-22.01 -0.53,-24.23 0.54,-73.31 1.06,-101.98 0.43,-28.78 0.31,-37.03 7.51,-26.77 7.2,10.26 21.69,39.14 37.67,61.04 15.97,21.79 33.33,36.6 50.99,47.29 17.57,10.69 35.34,17.35 49.62,18.62 14.39,1.27 25.39,-2.65 31.85,-10.16 6.46,-7.51 8.46,-18.51 4.97,-32.48 -3.59,-13.86 -12.9,-30.68 -36.49,-56.5 -23.7,-25.81 -62,-60.62 -87.6,-87.8 -25.6,-27.29 -38.62,-46.98 -48.46,-60.83 -9.84,-13.86 -16.51,-21.9 -19.26,-35.65 -2.74,-13.86 -1.38,-33.44 2.12,-47.19 3.49,-13.85 9.31,-21.79 18.62,-29.62 9.31,-7.72 21.9,-15.02 34.28,-19.57 12.28,-4.54 24.23,-6.13 39.99,-6.45 15.66,-0.21 35.23,0.84 52.9,5.82 17.46,5.07 33.11,14.07 44.33,19.25 11.32,5.29 18.09,6.88 24.65,6.24 6.46,-0.74 12.27,-3.6 17.35,-6.67 5.19,-3.07 9.31,-6.13 17.14,-7.4 7.82,-1.16 19.15,-0.64 24.75,-0.11 5.61,0.64 5.29,1.06 5.29,26.24 0,25.07 0.31,74.8 0.43,99.98 0.1,25.07 0.1,25.59 -2.86,26.02 -3.07,0.32 -9.2,0.54 -15.23,0.74 -15.13,-26.97 -30.15,-53.95 -47.29,-74.26zm-570.65 289.77l24.86 -68.98 112.89 1.06 15.02 55.96 -54.49 31.52 216.15 0 -57.98 -33.43 -130.45 -366.27 -65.16 0 -121.04 377.16 -69.61 22.85 190.32 0 -60.51 -19.89zm125.47 -104.84l-91.3 -1.05 46.24 -128.22 45.06 129.27zm-617.42 -161.33l5.29 286.28 -60.52 34.28 231.9 -11.1 -60.52 -31.32 -6.45 -146.52c-0.32,-8.36 0.43,-9.95 8.77,-10.16 5.93,-0.21 72.37,1.59 72.58,1.59 36.71,3.38 19.46,109.5 28.88,150.97 11,48.03 115.11,17.56 150.12,16.61 -15.66,-10.16 -57.24,-20.63 -57.55,-39.26 -0.43,-19.67 0,-63.9 1.27,-85.59 1.38,-21.47 1.06,-30.57 -4.54,-39.57 -12.7,-20.73 -49.83,-29.72 -72.9,-31.41 -3.07,-0.11 -3.92,-0.43 3.18,-3.28 36.28,-14.82 72.89,-41.58 78.18,-82.21 2.01,-14.39 1.28,-29.62 -5.5,-45.28 -6.98,-15.55 -19.78,-31.85 -33.33,-42.53 -13.44,-10.69 -63.8,-16.29 -80.19,-20 -34.18,-7.82 -159.33,13.01 -202.49,17.24 -25.6,2.33 -43.7,3.82 -53.22,4.66 -9.51,0.95 -10.89,1.7 -1.27,4.98 9.52,3.49 30.57,9.62 41.68,12.59 11,2.85 12.16,2.64 13.33,2.85 1.06,0.31 2.43,11.43 3.28,56.18zm102.41 -68.45l2.97 162.92c24.34,-2.54 59.88,-4.87 79.56,-19.67 33.85,-25.82 36.81,-113.52 -4.24,-137.32 -11.43,-6.77 -66.86,-6.46 -78.29,-5.93zm-550.34 127.91c6.36,58.19 18.31,173.5 24.34,231.26 5.92,57.66 5.92,57.66 -5.39,65.7 -11.32,8.05 -34.07,24.23 -56.6,40.31 78.29,-13.75 156.57,-27.51 234.97,-41.26 -21.05,-6.46 -42.11,-12.8 -52.9,-16.18 -10.9,-3.39 -11.43,-3.7 -12.8,-22.22 -1.38,-18.62 -3.39,-55.33 -4.97,-81.46 -1.7,-26.13 -2.86,-41.79 -3.49,-50.15 -0.64,-8.36 -0.64,-9.74 7.72,-10.9 8.36,-1.28 24.97,-2.33 38.08,-1.69 13.12,0.53 22.75,2.85 29.83,5.61 7.09,2.64 11.64,5.92 14.7,14.81 2.97,8.89 4.34,23.59 6.56,45.81 2.12,22.11 4.98,51.84 11.75,71.93 6.87,20.11 17.56,30.37 45.06,32.7 27.51,2.43 71.73,-3.28 115.96,-9 -17.67,-8.99 -35.44,-17.88 -46.45,-24.75 -11.1,-7.09 -15.44,-12.16 -17.87,-31.85 -2.44,-19.78 -2.97,-54.27 -3.82,-75.85 -0.95,-21.69 -2.12,-30.47 -8.56,-38.83 -6.57,-8.56 -18.41,-16.39 -28.26,-20.74 -9.94,-4.23 -18.2,-4.76 -24.75,-4.87 -6.66,-0.1 -11.95,0.43 -15.02,0.64 -3.07,0.11 -3.92,0 2.85,-3.7 6.77,-3.59 21.16,-10.89 33.64,-19.89 12.38,-8.89 22.75,-19.57 29.62,-32.06 6.88,-12.59 10.26,-26.97 10.8,-41.57 0.63,-14.6 -1.7,-29.62 -10.16,-44.54 -8.36,-14.82 -22.95,-29.62 -37.34,-38.93 -14.6,-9.41 -28.98,-13.33 -45.7,-15.34 -16.82,-2.12 -35.98,-2.33 -61.78,0.31 -25.72,2.44 -58.08,7.83 -90.67,14.08 -32.7,6.24 -65.6,13.33 -90.78,18.41 -25.28,5.08 -42.85,8.15 -52.36,10.15 -9.52,1.8 -10.9,2.65 -0.85,5.08 9.84,2.33 31.42,6.35 42.64,8.26 11.31,1.79 12.48,1.27 13.64,1.48 1.06,0.31 1.91,1.05 8.36,59.24zm105.06 -70.24c3.07,51.2 6.24,102.3 9.41,153.5 17.14,-3.59 34.39,-7.3 47.62,-11.74 13.12,-4.34 22.43,-9.41 29.51,-15.98 7.09,-6.56 11.96,-14.81 14.92,-27.92 2.97,-13.23 4.13,-31.64 3.28,-46.45 -0.84,-14.81 -3.59,-26.02 -7.72,-34.38 -4.33,-8.47 -10.26,-14.08 -18.2,-17.67 -8.04,-3.7 -18.08,-5.51 -31.64,-4.97 -13.54,0.41 -30.36,2.96 -47.18,5.61zm-602.19 90.13c69.3,-16.71 138.6,-33.21 207.79,-49.82 -16.19,15.66 -32.48,31.31 -48.67,46.97 11.43,97.22 22.85,194.56 29.62,248.2 6.77,53.75 8.89,63.8 13.54,70.88 4.66,6.88 11.85,10.69 20.95,13.12 9.1,2.23 20,3.08 33.44,0.75 13.43,-2.33 29.3,-7.83 39.14,-13.75 9.73,-6.14 13.54,-12.7 16.39,-21.06 2.85,-8.46 4.76,-18.83 -0.53,-72.78 -5.29,-53.96 -17.78,-151.4 -30.16,-249.05 -24.12,-7.93 -48.24,-15.97 -72.36,-23.9 67.49,-13.86 134.89,-27.62 202.38,-41.37 -16.93,13.65 -33.75,27.3 -50.67,40.95 11.85,106.53 23.48,212.97 29.3,268.82 5.82,55.76 5.61,61.04 -1.05,70.36 -6.88,9.21 -20.21,22.64 -32.16,32.8 -11.85,9.95 -22.32,16.61 -37.56,23.59 -15.34,6.98 -35.55,14.28 -57.34,19.57 -21.9,5.29 -45.39,8.46 -72.05,5.72 -26.67,-2.75 -56.39,-11.54 -74.06,-32.37 -17.56,-20.85 -23.06,-53.75 -30.15,-101.99 -6.98,-48.34 -15.77,-112.24 -21.06,-150.86 -5.39,-38.62 -7.41,-51.95 -9.52,-65.39 -0.21,-1.9 -0.41,-3.81 -0.53,-5.71 -18.2,-4.55 -36.49,-9.1 -54.7,-13.65zm-392.81 159.86c23.8,116.27 47.5,232.64 71.42,348.91 -18.41,19.36 -36.72,38.72 -55.01,57.98 67.39,-26.66 134.88,-53.54 202.27,-80.3 -19.04,-4.12 -38.18,-8.46 -57.23,-12.69 -8.15,-52.26 -16.4,-104.52 -24.54,-156.89 37.66,-13.44 75.32,-26.87 113.09,-40.21 9.2,51.95 18.51,103.89 27.72,155.84 -14.39,17.67 -28.78,35.23 -43.17,52.9 68.56,-24.23 137.12,-48.46 205.67,-72.78 -21.26,-1.8 -42.53,-3.7 -63.69,-5.51 -17.04,-116.37 -34.07,-232.85 -51,-349.23 16.51,-17.24 33.11,-34.6 49.62,-51.85 -72.9,20.63 -145.79,41.16 -218.69,61.78 21.59,6.36 43.06,12.8 64.65,19.26 7.08,50.57 14.18,101.24 21.26,151.92 -37.13,12.8 -74.27,25.6 -111.5,38.41 -9.21,-49.94 -18.41,-99.98 -27.62,-149.92 13.97,-17.98 27.93,-35.87 41.9,-53.95 -69.93,25.28 -139.65,50.67 -209.58,75.96 21.47,3.49 42.95,6.87 64.42,10.36z"/>
 </g>
</svg>
